<svg width="54" height="42" viewBox="0 0 54 42" fill="none" xmlns="http://www.w3.org/2000/svg">
<path d="M30 33.653H24C23.8674 33.653 23.7402 33.6003 23.6464 33.5065C23.5527 33.4128 23.5 33.2856 23.5 33.153V27.653H22.75H22.5V29.153C22.5 29.2856 22.4473 29.4128 22.3536 29.5065C22.2598 29.6003 22.1326 29.653 22 29.653H17C16.8674 29.653 16.7402 29.6003 16.6464 29.5065C16.5527 29.4128 16.5 29.2856 16.5 29.153V23.653H15.74C15.4102 23.6503 15.0948 23.5175 14.8626 23.2834C14.6303 23.0492 14.5 22.7328 14.5 22.403V18.903C14.5008 17.96 14.8144 17.044 15.3916 16.2984C15.9689 15.5528 16.7773 15.0198 17.69 14.783C17.1542 14.314 16.7741 13.6928 16.6005 13.0022C16.427 12.3116 16.4682 11.5845 16.7187 10.918C16.9692 10.2514 17.417 9.67713 18.0024 9.27174C18.5878 8.86636 19.2829 8.64917 19.995 8.64917C20.7071 8.64917 21.4022 8.86636 21.9876 9.27174C22.573 9.67713 23.0208 10.2514 23.2713 10.918C23.5218 11.5845 23.563 12.3116 23.3895 13.0022C23.2159 13.6928 22.8358 14.314 22.3 14.783C22.7631 14.9013 23.2026 15.0974 23.6 15.363C23.7783 14.5922 24.2124 13.9045 24.8317 13.4121C25.451 12.9197 26.2188 12.6516 27.01 12.6516C27.8012 12.6516 28.569 12.9197 29.1883 13.4121C29.8076 13.9045 30.2417 14.5922 30.42 15.363C30.8141 15.0981 31.2503 14.902 31.71 14.783C31.1742 14.314 30.7941 13.6928 30.6205 13.0022C30.447 12.3116 30.4882 11.5845 30.7387 10.918C30.9892 10.2514 31.437 9.67713 32.0224 9.27174C32.6078 8.86636 33.3029 8.64917 34.015 8.64917C34.7271 8.64917 35.4222 8.86636 36.0076 9.27174C36.593 9.67713 37.0408 10.2514 37.2913 10.918C37.5418 11.5845 37.583 12.3116 37.4095 13.0022C37.2359 13.6928 36.8558 14.314 36.32 14.783C37.2309 15.0217 38.037 15.5555 38.6123 16.3009C39.1877 17.0463 39.4998 17.9614 39.5 18.903V22.403C39.5 22.7345 39.3683 23.0524 39.1339 23.2869C38.8995 23.5213 38.5815 23.653 38.25 23.653H37.5V29.153C37.5 29.2856 37.4473 29.4128 37.3536 29.5065C37.2598 29.6003 37.1326 29.653 37 29.653H32C31.8674 29.653 31.7402 29.6003 31.6464 29.5065C31.5527 29.4128 31.5 29.2856 31.5 29.153V27.653H31.25H30.5V33.153C30.5 33.2856 30.4473 33.4128 30.3536 33.5065C30.2598 33.6003 30.1326 33.653 30 33.653ZM24.5 32.653H29.5V27.153C29.5 27.0204 29.5527 26.8932 29.6464 26.7994C29.7402 26.7057 29.8674 26.653 30 26.653H31.25C31.3163 26.653 31.3799 26.6266 31.4268 26.5798C31.4737 26.5329 31.5 26.4693 31.5 26.403V22.903C31.5 22.4762 31.4159 22.0536 31.2526 21.6593C31.0893 21.265 30.8499 20.9067 30.5481 20.6049C30.2463 20.3031 29.888 20.0637 29.4937 19.9004C29.0994 19.737 28.6768 19.653 28.25 19.653H25.75C25.3232 19.653 24.9006 19.737 24.5063 19.9004C24.112 20.0637 23.7537 20.3031 23.4519 20.6049C23.1501 20.9067 22.9107 21.265 22.7474 21.6593C22.5841 22.0536 22.5 22.4762 22.5 22.903V26.403C22.5 26.4693 22.5263 26.5329 22.5732 26.5798C22.6201 26.6266 22.6837 26.653 22.75 26.653H24C24.1326 26.653 24.2598 26.7057 24.3536 26.7994C24.4473 26.8932 24.5 27.0204 24.5 27.153V32.653ZM32.5 28.653H36.5V23.153C36.5 23.0204 36.5527 22.8932 36.6464 22.7994C36.7402 22.7057 36.8674 22.653 37 22.653H38.25C38.3155 22.6505 38.3777 22.6234 38.424 22.577C38.4704 22.5307 38.4975 22.4685 38.5 22.403V18.903C38.5 18.041 38.1576 17.2144 37.5481 16.6049C36.9386 15.9954 36.112 15.653 35.25 15.653H32.75C31.9041 15.6608 31.0955 16.0022 30.5 16.603C30.3884 17.4479 29.9724 18.223 29.33 18.783C30.239 19.0236 31.0429 19.5582 31.6163 20.3034C32.1897 21.0487 32.5004 21.9627 32.5 22.903V28.653ZM17.5 28.653H21.5V22.903C21.5013 21.9587 21.8164 21.0416 22.3956 20.2959C22.9748 19.5501 23.7854 19.0179 24.7 18.783C24.057 18.2403 23.631 17.4841 23.5 16.653C23.2081 16.3452 22.858 16.0984 22.4701 15.9268C22.0822 15.7551 21.6641 15.6621 21.24 15.653H18.74C17.8798 15.6556 17.0557 15.9992 16.4484 16.6084C15.841 17.2176 15.5 18.0428 15.5 18.903V22.403C15.4999 22.4676 15.5249 22.5297 15.5697 22.5763C15.6144 22.6229 15.6754 22.6504 15.74 22.653H17C17.1326 22.653 17.2598 22.7057 17.3536 22.7994C17.4473 22.8932 17.5 23.0204 17.5 23.153V28.653ZM27 18.653C27.4945 18.653 27.9778 18.5064 28.3889 18.2317C28.8 17.957 29.1205 17.5665 29.3097 17.1097C29.4989 16.6529 29.5484 16.1502 29.452 15.6653C29.3555 15.1803 29.1174 14.7348 28.7678 14.3852C28.4181 14.0356 27.9727 13.7975 27.4877 13.701C27.0028 13.6046 26.5001 13.6541 26.0433 13.8433C25.5865 14.0325 25.196 14.3529 24.9213 14.7641C24.6466 15.1752 24.5 15.6585 24.5 16.153C24.5 16.816 24.7634 17.4519 25.2322 17.9208C25.7011 18.3896 26.337 18.653 27 18.653ZM34 14.653C34.4945 14.653 34.9778 14.5064 35.3889 14.2317C35.8 13.957 36.1205 13.5665 36.3097 13.1097C36.4989 12.6529 36.5484 12.1502 36.452 11.6653C36.3555 11.1803 36.1174 10.7348 35.7678 10.3852C35.4181 10.0356 34.9727 9.79748 34.4877 9.70102C34.0028 9.60456 33.5001 9.65407 33.0433 9.84328C32.5865 10.0325 32.196 10.3529 31.9213 10.7641C31.6466 11.1752 31.5 11.6585 31.5 12.153C31.5 12.816 31.7634 13.4519 32.2322 13.9208C32.7011 14.3896 33.337 14.653 34 14.653ZM20 14.653C20.4945 14.653 20.9778 14.5064 21.3889 14.2317C21.8 13.957 22.1205 13.5665 22.3097 13.1097C22.4989 12.6529 22.5484 12.1502 22.452 11.6653C22.3555 11.1803 22.1174 10.7348 21.7678 10.3852C21.4181 10.0356 20.9727 9.79748 20.4877 9.70102C20.0028 9.60456 19.5001 9.65407 19.0433 9.84328C18.5865 10.0325 18.196 10.3529 17.9213 10.7641C17.6466 11.1752 17.5 11.6585 17.5 12.153C17.5 12.8143 17.762 13.4487 18.2287 13.9172C18.6954 14.3858 19.3287 14.6503 19.99 14.653H20Z" fill="#FE4716"/>
<path opacity="0.995" d="M15.4298 34.9399C13.4163 33.2504 11.7973 31.1404 10.6865 28.7582C9.57564 26.3761 9 23.7795 9 21.1511C9 18.5227 9.57564 15.9261 10.6865 13.544C11.7973 11.1618 13.4163 9.05183 15.4298 7.3623" stroke="#FE4716" stroke-width="3" stroke-miterlimit="3.3" stroke-linecap="round"/>
<path opacity="0.995" d="M10.9303 40.3022C8.13379 37.9557 5.88511 35.0251 4.34231 31.7166C2.7995 28.408 2 24.8017 2 21.1511C2 17.5005 2.7995 13.8942 4.34231 10.5857C5.88511 7.2771 8.13379 4.34656 10.9303 2" stroke="#FE4716" stroke-width="3" stroke-miterlimit="3.3" stroke-linecap="round"/>
<path opacity="0.995" d="M38.5702 7.3623C40.5837 9.05183 42.2027 11.1618 43.3136 13.544C44.4244 15.9261 45 18.5227 45 21.1511C45 23.7795 44.4244 26.3761 43.3136 28.7582C42.2027 31.1404 40.5837 33.2504 38.5702 34.9399" stroke="#FE4716" stroke-width="3" stroke-miterlimit="3.3" stroke-linecap="round"/>
<path opacity="0.995" d="M43.0697 2C45.8662 4.34656 48.1149 7.27709 49.6577 10.5857C51.2005 13.8942 52 17.5005 52 21.1511C52 24.8017 51.2005 28.408 49.6577 31.7166C48.1149 35.0251 45.8662 37.9557 43.0697 40.3022" stroke="#FE4716" stroke-width="3" stroke-miterlimit="3.3" stroke-linecap="round"/>
</svg>
