<?xml version="1.0" encoding="UTF-8"?>
<svg fill="none" version="1.1" viewBox="0 0 31 31" xmlns="http://www.w3.org/2000/svg">
 <defs>
  <clipPath id="a">
   <rect width="31" height="31" fill="#fff"/>
  </clipPath>
 </defs>
 <g transform="translate(-.30592 .45879)">
  <path d="m15.678 0a15.067 15.143 0 0 0-15.066 15.143 15.067 15.143 0 0 0 15.066 15.145 15.067 15.143 0 0 0 15.066-15.145 15.067 15.143 0 0 0-15.066-15.143zm-0.16016 5.0996a9.9934 10.044 0 0 1 0.0332 0 9.9934 10.044 0 0 1 9.9941 10.043 9.9934 10.044 0 0 1-9.9941 10.045 9.9934 10.044 0 0 1-9.9941-10.045 9.9934 10.044 0 0 1 9.9609-10.043z" fill="#ccc" stroke-dasharray="7.60658, 7.60658" stroke-width="2.5355"/>
  <g transform="translate(.30592 -.45879)" clip-path="url(#a)">
   <path transform="translate(-.050986 -9.5239e-5)" d="m15.57 0.068359c-8.55 0-15.48 6.8943-15.48 15.398 0 8.5041 6.9307 15.398 15.48 15.398 8.5501 0 15.48-6.8943 15.48-15.398 0-8.5041-6.9307-15.398-15.48-15.398zm-0.27344 5.3867a9.9679 10.044 0 0 1 0.02539 0 9.9679 10.044 0 0 1 9.9668 10.045 9.9679 10.044 0 0 1-9.9668 10.045 9.9679 10.044 0 0 1-9.9688-10.045 9.9679 10.044 0 0 1 9.9434-10.045z"/>
   <path d="m14.307 30.984c-3.8391-0.3501-7.155-1.8794-9.7906-4.5152-2.4054-2.4058-3.908-5.4424-4.434-8.9608-0.12351-0.8262-0.10485-3.3804 0.031118-4.2608 0.42931-2.7796 1.5011-5.2654 3.2124-7.4503 0.49511-0.63214 2.0716-2.1774 2.708-2.6543 2.2629-1.6958 4.4309-2.5911 7.4283-3.0675 0.7102-0.11286 3.3316-0.095262 4.1252 0.027698 3.389 0.5251 6.2312 1.9183 8.5972 4.2143 0.9146 0.88751 1.516 1.6051 2.1655 2.5837 3.2385 4.8794 3.4586 11.188 0.5673 16.256-2.3954 4.199-6.5345 7.0119-11.359 7.7195-0.5819 0.0854-2.7197 0.1562-3.2512 0.1077zm3.1461-1.0721c3.8191-0.4988 7.2921-2.4472 9.6829-5.4321 1.7224-2.1505 2.785-4.7073 3.14-7.5555 0.1042-0.8355 0.0892-2.6472-0.0292-3.5311-0.7565-5.648-4.5564-10.279-9.9389-12.114-3.2422-1.1049-6.9231-0.99968-10.125 0.28936-4.0968 1.6494-7.2351 5.027-8.5733 9.227-0.48751 1.53-0.67287 2.7735-0.66995 4.4942 0.00291 1.7096 0.18268 2.9221 0.65259 4.4015l0.1592 0.5012 0.02913-4.6486c0.02781-4.4372 0.03409-4.6541 0.13813-4.7692 0.17865-0.1977 0.45741-0.2623 0.69779-0.1617 0.25982 0.1087 0.3867 0.352 0.39061 0.7487l0.00304 0.3093 0.20116-0.5544c0.28564-0.7873 0.94334-2.0874 1.4069-2.781 1.2966-1.94 2.9207-3.3795 4.9985-4.4302 1.3449-0.68012 2.6695-1.0888 4.1657-1.2852 1.0997-0.14438 2.9548-0.09087 4.0491 0.1168 5.3996 1.0246 9.5783 5.3542 10.432 10.809 0.1305 0.834 0.1722 2.368 0.0871 3.2038-0.3145 3.0872-1.5798 5.7637-3.7553 7.9431-2.1754 2.1793-4.8471 3.447-7.9287 3.762-0.8343 0.0853-2.3656 0.0435-3.198-0.0873-3.197-0.5022-6.0703-2.1594-8.1525-4.7019-0.77765-0.9496-1.6849-2.5709-2.0902-3.7354l-0.19297-0.5545-0.02914 0.7879c-0.03615 0.9781-0.10605 1.1194-0.60445 1.2222l-0.16749 0.0345 0.33245 0.6411c0.43664 0.8421 1.1815 1.9559 1.8016 2.6941 0.27434 0.3265 0.52579 0.6104 0.55878 0.6308 0.03746 0.0232 0.05998-0.0539 0.05998-0.2056 0-0.3317 0.29305-0.6396 0.60881-0.6396 0.3993 0 0.7312 0.3064 0.7312 0.6751 0 0.3304-0.3547 0.6673-0.70259 0.6673-0.18909 0-0.18921 2e-4 -0.0784 0.1241 0.26364 0.2948 1.2742 1.0929 1.9462 1.5371 2.1591 1.4271 4.2245 2.1468 7.0204 2.4464 0.4013 0.043 2.4236-0.0114 2.9422-0.0792zm-2.1556 0.0204c-0.3578-0.123-0.5244-0.3339-0.5244-0.6635 0-0.6334 0.7569-0.9025 1.1847-0.4212 0.137 0.1541 0.1816 0.5265 0.0848 0.7074-0.1389 0.2594-0.5228 0.4538-0.7451 0.3773zm0.4873-0.3759c0.1152-0.0909 0.1535-0.1736 0.1535-0.3319 0-0.44-0.4814-0.6461-0.7891-0.3378-0.4213 0.422 0.1655 1.0401 0.6356 0.6697zm9.1195-3.7603c-0.2202-0.1199-0.3433-0.3411-0.3433-0.6168 0-0.1966 0.0367-0.2781 0.1981-0.4398 0.1676-0.1679 0.2391-0.1984 0.4651-0.1984 0.3566 0 0.6118 0.2172 0.6576 0.5596 0.0757 0.5654-0.4844 0.9639-0.9775 0.6954zm0.6073-0.2139c0.1833-0.0979 0.2689-0.2297 0.271-0.4175 0.0041-0.3617-0.3137-0.5835-0.6412-0.4476-0.3853 0.1599-0.4008 0.6607-0.0269 0.8656 0.1511 0.0828 0.2411 0.0827 0.3971-4e-4zm3.4828-9.5749c-0.468-0.2514-0.5002-0.9581-0.0542-1.1892 0.5162-0.2674 1.1106 0.1476 1.0066 0.7028-0.0753 0.4021-0.6054 0.6729-0.9524 0.4864zm0.753-0.3985c0.1588-0.2971-0.055-0.7565-0.3519-0.7565-0.1498 0-0.3526 0.1033-0.4485 0.2284-0.1716 0.2239 0.0103 0.6735 0.2906 0.7185 0.1865 0.0299 0.4434-0.0661 0.5098-0.1904zm-24.391-9.4174c-0.24479-0.11048-0.37161-0.30733-0.37161-0.57683 0-0.44428 0.24357-0.68451 0.69402-0.68451 0.26148 0 0.4818 0.15237 0.58651 0.40561 0.22409 0.54197-0.36832 1.0997-0.90892 0.85573zm0.65952-0.29837c0.24057-0.16881 0.22188-0.57335-0.03564-0.77142-0.22774-0.17517-0.65236 0.00223-0.728 0.30414-0.03965 0.15825 0.0865 0.46528 0.21194 0.51584 0.15122 0.06095 0.43069 0.03635 0.5517-0.04856zm18.913 0.29402c-0.2214-0.09646-0.3679-0.35416-0.3679-0.64708 0-0.16444 0.0452-0.25828 0.1981-0.41147 0.1676-0.16796 0.2391-0.19844 0.4651-0.19844 0.7114 0 0.9324 0.94943 0.2918 1.2539-0.2266 0.10772-0.3455 0.10835-0.5871 0.00306zm0.7126-0.34966c0.4212-0.42198-0.1656-1.0401-0.6357-0.66963-0.1152 0.09081-0.1535 0.17355-0.1535 0.33184 0 0.44 0.4814 0.64607 0.7892 0.33779zm-10.67-3.849c-0.1649-0.16524-0.1981-0.2412-0.1981-0.45394 0-0.29174 0.1078-0.47721 0.3502-0.60282 0.332-0.17198 0.7387-0.054177 0.9014 0.26107 0.2486 0.48154-0.0828 0.99414-0.6428 0.99414-0.1641 0-0.2578-0.04526-0.4107-0.19845zm0.7299-0.12041c0.283-0.14659 0.33-0.5274 0.0942-0.76357-0.3921-0.39288-1.0147 0.15017-0.6955 0.6067 0.0836 0.11966 0.2613 0.22835 0.3899 0.23856 0.0256 2e-3 0.1208-0.03472 0.2114-0.08169zm1.846 25.626c3.4754-0.5972 6.3799-2.4831 8.3455-5.4188 1.0078-1.5052 1.6809-3.3365 1.9362-5.268 0.1023-0.7743 0.0865-2.4428-0.0304-3.2102-0.6815-4.4714-3.5145-8.0809-7.6552-9.7532-1.9888-0.80323-4.4625-1.062-6.6134-0.69179-3.938 0.67779-7.3077 3.2354-9.0325 6.8555-0.52341 1.0986-0.84099 2.1168-1.0649 3.4144-0.14412 0.8351-0.14361 2.9121 9.4e-4 3.7867 0.52354 3.1676 2.1575 5.9256 4.6601 7.8663 1.7715 1.3737 3.8321 2.2097 6.1554 2.4975 0.6341 0.0786 2.6658 0.0303 3.2983-0.0784zm-3.4149-1.6707c-2.2152-0.3079-4.2274-1.2656-5.8083-2.7645-4.8834-4.63-4.1645-12.564 1.4735-16.262 0.62885-0.41251 1.6184-0.88844 2.354-1.1322 4.3334-1.4362 9.0596 0.10541 11.727 3.8252 0.5294 0.73825 1.2108 2.1232 1.4652 2.9782 0.3467 1.1652 0.4077 1.6195 0.4099 3.0555 0.0017 1.1276-0.0149 1.3659-0.136 1.9553-0.8591 4.18-3.9504 7.314-8.0973 8.209-0.5654 0.122-0.8734 0.15-1.8439 0.1675-0.6409 0.0116-1.3357-0.0027-1.544-0.0316zm1.9893-0.2918c4.7141-0.4672 8.3491-3.985 8.9672-8.6779 0.102-0.7748 0.0403-2.4498-0.1173-3.1858-0.9207-4.2982-4.2734-7.3764-8.6237-7.9179-1.0677-0.13289-2.4569-0.03306-3.5636 0.2561-3.6019 0.94106-6.3716 3.8138-7.1808 7.4479-0.31689 1.4231-0.32574 2.8671-0.02607 4.258 0.81927 3.8026 3.75 6.7703 7.5177 7.6123 1.1014 0.2462 2.0078 0.3083 3.0266 0.2073zm-10.034-0.094c0.16344-0.2081 0.15465-0.4596-0.02226-0.6368-0.42511-0.4259-1.0742 0.2164-0.66249 0.6555 0.18379 0.196 0.52346 0.1867 0.68475-0.0187zm-3.4082-5.1325c0.07678-0.0769 0.09155-0.27 0.09155-1.1965v-1.1048h-0.52435v1.0836c0 0.6353 0.02495 1.1303 0.06031 1.1965 0.0729 0.1365 0.2475 0.1464 0.37249 0.0212zm0.06242-4.5776v-2.1304l-0.24761-0.0179-0.24761-0.018v2.124c0 1.1682 0.01873 2.1428 0.04161 2.1657 0.02289 0.0229 0.13431 0.0339 0.24761 0.0243l0.206-0.0173zm0.02913-3.3599c0-0.6353-0.02495-1.1303-0.06031-1.1965-0.03422-0.0641-0.12154-0.1129-0.20187-0.1129-0.08032 0-0.16764 0.0488-0.20186 0.1129-0.03536 0.0662-0.06031 0.5612-0.06031 1.1965v1.0836h0.52435z" fill="#343434"/>
  </g>
 </g>
</svg>
