<?xml version="1.0" encoding="UTF-8"?>
<svg fill="none" viewBox="0 0 42 42" xmlns="http://www.w3.org/2000/svg">
<path d="m27.064 37.27c-0.1339 0.663-0.369 1.2714-0.709 1.8285-0.3509 0.5708-0.8103 1.0869-1.3746 1.5381-0.5679 0.4511-1.1829 0.7929-1.8521 1.0219s-1.3782 0.3418-2.127 0.3418c-0.7524 0-1.4614-0.1162-2.127-0.3418-0.6656-0.229-1.2841-0.5674-1.8484-1.0219-0.568-0.4546-1.0238-0.9673-1.3746-1.5381-0.3509-0.5708-0.5897-1.1996-0.7199-1.89-0.0651-0.335 0.1736-0.6563 0.5281-0.7178 0.0109 0 0.1158-0.0103 0.1158-0.0103h10.859c0.3617 0 0.6583 0.2769 0.6583 0.6221-0.0036 0.0581-0.0145 0.1128-0.0289 0.1675zm-19.754-37.183c0.66197-0.2495 1.4108 0.058104 1.6748 0.68357 0.26407 0.62547-0.06149 1.333-0.72346 1.5825-1.4325 0.54003-2.6334 1.2885-3.592 2.2592-0.95498 0.97068-1.6748 2.1738-2.1451 3.6195-0.20981 0.64256-0.93328 1.0048-1.6133 0.80662-0.68006-0.19824-1.0635-0.88181-0.85369-1.5244 0.58963-1.8115 1.5012-3.329 2.7202-4.5663 1.219-1.2338 2.7347-2.184 4.5325-2.8608zm26.428 2.266c-0.662-0.2495-0.9876-0.957-0.7235-1.5825 0.2641-0.62547 1.0129-0.93308 1.6748-0.68357 1.7978 0.67674 3.3135 1.6269 4.5326 2.8642 1.219 1.2407 2.1342 2.7582 2.7202 4.5663 0.2098 0.64256-0.1736 1.3261-0.8537 1.5244-0.6801 0.19823-1.4035-0.16406-1.6133-0.80662-0.4703-1.4492-1.1901-2.6523-2.1451-3.6195-0.9586-0.97409-2.1596-1.7226-3.592-2.2626zm-9.2785 1.2509c0.5317 0.12988 1.049 0.29052 1.5518 0.4785 0.738 0.27685 1.447 0.60838 2.127 0.9946 0.0253 0.01709 0.0543 0.03076 0.0796 0.04785 0.6511 0.37939 1.2588 0.79636 1.8159 1.2475 0.586 0.47509 1.1286 0.99802 1.635 1.5722l0.0037 0.00342c0.4955 0.56395 0.9369 1.1689 1.3275 1.808 0.3907 0.64255 0.7271 1.3124 1.0056 2.0028 0.2858 0.7144 0.4992 1.4424 0.6439 2.1909 0.1411 0.7519 0.2135 1.5209 0.2135 2.3105v2.5052c0.0036 0.7998 0.0072 1.5825 0.0144 2.3447v0.0068c0.0036 0.6904 0.0507 1.3843 0.1411 2.0781 0.0904 0.687 0.2207 1.3501 0.3907 1.9892 0.17 0.6289 0.4015 1.2373 0.6873 1.8183 0.2966 0.5981 0.6583 1.186 1.0816 1.7568h0.0036c0.4196 0.5605 0.9441 1.1176 1.5735 1.6645 0.6511 0.5639 1.4035 1.121 2.2645 1.6611 0.4919 0.311 0.6258 0.9433 0.293 1.4081-0.2062 0.2905-0.5462 0.4512-0.8935 0.4512v0.0034h-38.839c-0.59686 0-1.078-0.4546-1.078-1.0185 0-0.3691 0.20981-0.6938 0.5209-0.8716 0.87178-0.5571 1.6206-1.1108 2.2464-1.6576 0.62218-0.5435 1.1431-1.1006 1.5627-1.6748 0.01085-0.0171 0.02532-0.0342 0.03979-0.0478 0.40514-0.5606 0.75241-1.1314 1.0382-1.7124 0.293-0.5913 0.52813-1.1997 0.70176-1.8251 0.00362-0.0137 0.00723-0.0274 0.01085-0.0376 0.1664-0.6084 0.29301-1.251 0.37982-1.9243 0.08682-0.6767 0.13384-1.3774 0.13384-2.0986v-4.8191c0-0.7759 0.07235-1.5449 0.22066-2.3139 0.14831-0.7656 0.36174-1.5005 0.64751-2.2012 0.28215-0.7006 0.62218-1.3739 1.0165-2.0165 0.39067-0.63914 0.83922-1.2441 1.342-1.8183l0.0072-0.00683c0.4992-0.56395 1.0491-1.0903 1.6459-1.5722 0.5897-0.47508 1.2263-0.90915 1.91-1.2954 0.6909-0.38964 1.4071-0.71775 2.1451-0.98435 0.5136-0.18456 1.0454-0.33837 1.588-0.46483 0.1845-0.6118 0.5028-1.1074 0.955-1.4868 0.6221-0.52293 1.4397-0.78269 2.4561-0.77244 1.0057 0.00684 1.8196 0.27001 2.4345 0.79295 0.4486 0.3828 0.7705 0.87497 0.955 1.4834zm0.7705 2.3686c-0.5969-0.22216-1.2046-0.39647-1.8232-0.52293-0.4774-0.0581-0.8681-0.41356-0.9296-0.88523-0.0579-0.44432-0.1917-0.75535-0.4052-0.93308-0.2134-0.17772-0.5534-0.27001-1.02-0.27343-0.4667-0.00341-0.8031 0.08203-1.0093 0.25634-0.2098 0.17773-0.3436 0.49218-0.3979 0.94334-0.0506 0.43065-0.3943 0.79978-0.8718 0.88181-0.6692 0.11962-1.3167 0.29051-1.9425 0.51609-0.6258 0.22216-1.2226 0.49901-1.8014 0.82371-0.5752 0.3247-1.1142 0.69041-1.6134 1.0971-0.4991 0.40331-0.9658 0.84763-1.3926 1.333-0.4196 0.4785-0.7958 0.99461-1.1323 1.5414-0.3291 0.5401-0.6185 1.1143-0.8645 1.7227-0.24598 0.6049-0.42685 1.2201-0.54622 1.8353-0.11937 0.6187-0.17725 1.2715-0.17725 1.9551v4.8192c0 0.7997-0.05064 1.579-0.14831 2.3446-0.09767 0.7349-0.24236 1.4663-0.44132 2.1874-0.00361 0.0171-0.00723 0.0308-0.01085 0.0479-0.20619 0.7348-0.48472 1.456-0.8356 2.1669-0.34003 0.687-0.74518 1.3535-1.2118 1.9995l-0.04341 0.0615c-0.49196 0.6699-1.1178 1.3364-1.8738 1.9995l-0.02894 0.0239h32.581c-0.7379-0.6426-1.3601-1.3056-1.8666-1.9824v-0.0034c-0.4955-0.6699-0.9188-1.3569-1.2696-2.061-0.3582-0.7177-0.6331-1.4457-0.832-2.1772v-0.0034c-0.1954-0.728-0.3437-1.4765-0.4413-2.2421-0.0941-0.7314-0.1447-1.5039-0.1484-2.3139v-0.0034c-0.0072-0.7554-0.0108-1.5415-0.0144-2.3618-0.0073-1.5175-0.0073-2.3446-0.0073-2.5052 0-0.67-0.0578-1.3228-0.1808-1.9551-0.1194-0.6289-0.2966-1.2372-0.5318-1.8251v-0.0034c-0.2423-0.605-0.5281-1.1758-0.8537-1.7124-0.3255-0.5366-0.7017-1.0458-1.125-1.5312-0.4196-0.47509-0.879-0.91599-1.3782-1.3227-0.4847-0.39305-0.9984-0.74509-1.5373-1.063-0.0254-0.01026-0.0471-0.02393-0.0724-0.0376-0.586-0.3247-1.1865-0.60496-1.8014-0.83738z" fill="#fff"/>
</svg>
