<svg width="40" height="38" viewBox="0 0 40 38" fill="none" xmlns="http://www.w3.org/2000/svg">
    <path d="M27.4752 22.5491C32.3039 16.1079 30.6889 7.18875 23.8703 2.62836C17.0517 -1.93202 7.60995 -0.407536 2.78236 6.03476C-2.04523 12.476 -0.431414 21.3941 6.38835 25.9544C11.2552 29.2094 17.6896 29.46 22.8229 26.5963L33.9765 37.0694C35.1809 38.267 37.1846 38.3149 38.4523 37.1773C39.7201 36.0407 39.7708 34.1479 38.5677 32.9503C38.5296 32.9122 38.4927 32.8773 38.4523 32.8413L27.4752 22.5491ZM15.1195 23.5255C9.73132 23.5266 5.36285 19.4032 5.35939 14.3132C5.35823 9.22322 9.72325 5.09653 15.1126 5.09435C20.4939 5.09217 24.8601 9.20905 24.8705 14.2925C24.8797 19.3836 20.517 23.5168 15.1265 23.5255C15.1242 23.5255 15.123 23.5255 15.1195 23.5255Z" fill="white"/>
</svg>
