<?xml version="1.0" encoding="UTF-8"?>
<svg fill="none" viewBox="0 0 50 50" xmlns="http://www.w3.org/2000/svg">
<path d="m25 4.1667c-11.506 0-20.833 9.3274-20.833 20.833 0 5.3571 2.0203 10.241 5.345 13.934 1.7386-3.329 5.2223-5.6007 9.2383-5.6007h12.5c4.016 0 7.4996 2.2717 9.2383 5.6007 3.3246-3.6928 5.345-8.5769 5.345-13.934 0-11.506-9.3275-20.833-20.833-20.833zm12.215 37.712c-0.7948-2.5368-3.1662-4.3783-5.9654-4.3783h-12.5c-2.7991 0-5.1705 1.8415-5.9654 4.3783 3.432 2.4888 7.6501 3.955 12.215 3.955 4.5652 0 8.7833-1.4662 12.215-3.955zm-37.215-16.878c0-13.807 11.193-25 25-25s25 11.193 25 25c0 7.7956-3.5704 14.759-9.1575 19.34-4.3121 3.5358-9.8321 5.6596-15.842 5.6596-6.0105 0-11.53-2.1238-15.842-5.6596-5.587-4.5814-9.1575-11.545-9.1575-19.34zm25-10.417c-3.4813 0-6.2875 2.8071-6.2875 6.25s2.8062 6.25 6.2875 6.25c3.4812 0 6.2875-2.8071 6.2875-6.25s-2.8063-6.25-6.2875-6.25zm-10.454 6.25c0-5.7617 4.6892-10.417 10.454-10.417 5.7648 0 10.454 4.6549 10.454 10.417s-4.6894 10.417-10.454 10.417c-5.7649 0-10.454-4.6548-10.454-10.417z" clip-rule="evenodd" fill="#fff" fill-rule="evenodd"/>
</svg>
