<?xml version="1.0" encoding="UTF-8"?>
<svg viewBox="0 0 41 41" xmlns="http://www.w3.org/2000/svg">
<path d="m21.861 1.8098c-0.6726 0.67265-0.8808 1.3613-0.4965 1.6336 0.2243 0.17617 0.4485 0.14414 1.2012-0.08008 1.1531-0.33632 1.2973-0.43242 1.2973-0.75273 0-0.41641-0.7848-1.3293-1.1531-1.3293-0.1762 0-0.5606 0.24024-0.8489 0.52852z" fill="#F038FF"/>
<path d="m9.4973 1.7617c-1.0891 0.65664-1.6336 2.7066-1.0891 4.116 0.16016 0.40039 0.67266 1.1691 1.1371 1.6816 1.1852 1.2812 1.1531 1.6496-0.22422 2.066-0.70468 0.20821-1.1531 0.64061-1.1531 1.1211 0 0.3523 0.32031 0.4644 1.4254 0.4644 1.2652 0 2.1941 0.4965 2.6906 1.4414 0.4644 0.8809 0.4965 2.1141 0.048 2.8348-0.4965 0.8328-1.057 1.009-2.9949 1.025-1.9699 0-2.2902-0.0801-3.7637-0.8648-1.2973-0.6887-2.05-0.8649-2.6746-0.5926-1.3293 0.5445-1.4895 3.8437-0.25625 5.0769 0.48047 0.4805 0.60859 0.5286 1.5535 0.5286 1.2812 0 2.3062-0.3043 4.4844-1.3133 2.1621-0.993 2.6906-1.0891 3.155-0.5926 0.7688 0.8328 0.2243 1.9859-1.3293 2.8828-0.92886 0.5125-1.6175 1.1852-1.7296 1.6817-0.12812 0.5445 0.16016 2.0019 0.44844 2.3222 0.32031 0.3524 1.2172 0.4004 1.4895 0.0801 0.096-0.1121 0.2882-0.5766 0.4164-1.009 0.1761-0.5926 0.4484-1.009 1.057-1.5695 1.073-1.009 1.2973-0.8168 0.8008 0.6887-0.3844 1.2011-0.3364 1.5855 0.2562 1.7296 0.3203 0.0801 0.5285-0.032 1.0731-0.5605 0.3683-0.3524 0.8168-0.6566 0.9929-0.6566 0.5606 0 1.3934 0.6886 1.9539 1.6015l0.5446 0.8809-0.0801 1.8418c-0.0961 2.1781-0.3363 2.9468-1.6016 5.125-1.025 1.7617-1.3132 2.6265-1.1691 3.4113 0.2402 1.2652 1.7137 2.5145 2.9949 2.5145 0.7527 0 2.1461-0.8329 2.6106-1.5696 0.6726-1.009 0.6566-1.4574-0.0801-4.5965-0.6406-2.6425-0.6887-3.0589-0.7047-5.0449 0-1.6016 0.0641-2.2902 0.2402-2.6426 0.5446-1.073 1.2492-0.5445 1.8418 1.4414 0.3043 0.977 0.5285 1.4414 0.8008 1.6176 0.8488 0.5606 1.5215-0.3043 1.5215-1.9219 0-1.073 0.1121-1.3773 0.4805-1.3773 0.5445 0 0.9289 0.7207 1.041 1.9699 0.1281 1.2492 0.4965 2.2903 1.025 2.8188 0.8488 0.8488 2.4183 0.048 2.4183-1.2172-0.016-0.8809-0.4644-1.7457-1.5695-2.9789-0.7207-0.7688-0.993-1.2012-0.993-1.5215 0.0161-0.8168 0.8969-1.5535 1.6496-1.3453 1.1211 0.3043 3.5395 2.5785 4.2762 4.0359 0.1602 0.3203 0.4485 1.2492 0.6406 2.066 0.4164 1.7618 0.8809 2.4024 1.8579 2.5625 1.4414 0.2403 2.8828-0.3683 3.4593-1.4734 0.6246-1.2492 0.0641-3.2191-1.2172-4.1961-0.3043-0.2242-0.9769-0.4965-1.5535-0.6246-0.5605-0.1121-1.2972-0.3203-1.6176-0.4645-1.9058-0.8007-5.3492-3.9078-4.8687-4.3882 0.2082-0.2082 1.2012-0.0321 2.034 0.3523 1.1211 0.5125 2.114 0.5445 2.4504 0.0481 0.4004-0.5766 0.3203-1.3293-0.1922-1.9219-0.4965-0.5446-0.4164-0.5285-2.8828-0.4324-1.2973 0.064-1.3614 0.048-1.7297-0.3844-0.5766-0.6727-0.5445-1.8578 0.0801-2.5465l0.4644-0.5285 2.066-0.0961c2.4664-0.1121 2.9149-0.2883 3.4754-1.3934 0.2082-0.4164 0.4324-0.9769 0.4805-1.2652 0.2562-1.1371-0.8008-1.9699-2.4984-1.9699-0.7848 0-0.8489 0.032-1.6336 0.8648-1.5375 1.6336-2.6746 1.986-3.2832 0.993-0.4805-0.7528-0.4325-1.4574 0.1121-2.002 0.2402-0.2402 1.2011-0.73669 2.1461-1.1211 2.0339-0.81679 2.9629-1.5535 3.4754-2.7547 0.4804-1.0891 0.4964-2.3062 0.08-3.027-0.6086-1.041-2.2742-1.3773-3.6515-0.7207-0.977 0.46446-1.3453 1.1051-1.7618 3.1711-0.4484 2.1461-0.6886 2.7227-1.5855 3.7316-0.8488 0.96097-1.5855 1.2973-2.098 0.96097-0.6887-0.4485-0.929-1.2332-0.8008-2.7227 0.1281-1.6496-0.0641-2.2742-0.9129-3.043-0.7528-0.68868-1.3133-0.73672-1.6817-0.17617-0.3683 0.56054-0.3043 1.2812 0.1762 2.4824 0.6246 1.4894 0.4164 2.5144-0.6086 3.075-0.6566 0.3523-3.4754-1.1371-4.7887-2.5305-0.6886-0.73672-1.8097-2.4664-2.5304-3.9078-0.7367-1.4734-1.0571-1.8898-1.7617-2.2422-0.8008-0.40039-1.6977-0.40039-2.3543 0z" fill="#F038FF"/>
<path d="m37.492 4.1c-0.1922 0.24023-0.3363 0.60859-0.3363 0.83281 0 0.25625-0.2082 0.62461-0.5125 0.94492-0.4805 0.49649-0.4965 0.52852-0.1602 0.52852 0.929 0 2.5946-1.1852 2.5946-1.8258 0-0.44844-0.4645-0.89688-0.9289-0.89688-0.1762 0-0.4805 0.19219-0.6567 0.41641z" fill="#F038FF"/>
<path d="m35.811 7.7035c-0.5285 0.17618-1.2492 0.52852-1.6015 0.78477-0.7208 0.48047-1.4735 1.2332-1.3614 1.3453 0.0321 0.03203 0.5446-0.04805 1.1371-0.17617l1.0891-0.24023 0.5605 0.49648c0.8809 0.76872 1.9059 0.64062 2.4024-0.3043 0.3363-0.64062 0.3043-1.3293-0.0961-1.8258-0.4004-0.5125-0.8328-0.52851-2.1301-0.08008z" fill="#F038FF"/>
<path d="m3.5394 9.3371c-0.92891 0.48047-0.57657 1.5535 0.5125 1.5535 0.83281 0 3.3473-0.4484 3.5394-0.6406 0.28828-0.28828-0.25625-0.62461-1.4254-0.88086-1.3613-0.28828-2.1141-0.3043-2.6266-0.03203z" fill="#F038FF"/>
<path d="m35.074 20.564c0 0.5765 2.4824 1.8578 3.5715 1.8578 0.5766 0 1.0731-0.4004 1.0731-0.8489 0-0.4164-0.6887-0.7527-2.034-0.9929-1.6817-0.3043-2.6106-0.3043-2.6106-0.016z" fill="#F038FF"/>
<path d="m3.8437 22.966c-0.76875 0.2723-2.034 1.1531-2.3383 1.6336-0.40039 0.6086-0.20821 1.6336 0.4164 2.1781 0.62461 0.5606 1.025 0.5606 1.6016 0 0.32032-0.3363 0.48047-0.6886 0.56055-1.2492 0.16016-1.2172 0.19219-1.2812 1.1211-1.9699 0.48047-0.3684 0.88086-0.7047 0.88086-0.7367 0-0.1602-1.7137-0.0481-2.2422 0.1441z" fill="#F038FF"/>
<path d="m7.3672 25.257c-0.49649 0.1921-0.80079 0.5925-0.80079 1.089 0 1.009 1.1051 1.3934 1.8418 0.6406 0.88086-0.8648 0.0961-2.1461-1.041-1.7296z" fill="#F038FF"/>
<path d="m12.572 26.73c-1.5856 0.7207-2.7867 3.4594-2.0981 4.7887 0.3203 0.6246 0.7047 0.8328 1.4895 0.8328 0.8008 0 1.6176-0.5125 1.9058-1.2012 0.1922-0.4805 0.1922-0.6406-0.032-1.2973-0.2402-0.7207-0.2402-0.7847 0.0801-1.3453 0.4164-0.7527 0.4324-1.3453 0.016-1.7617-0.3844-0.3844-0.5445-0.4004-1.3613-0.016z" fill="#F038FF"/>
<path d="m27.307 32.272c-0.5605 0.5445-0.5605 1.7937-0.032 2.2902 0.4805 0.4485 0.6726 0.4485 1.1531-0.048 0.3043-0.2883 0.4004-0.5606 0.4004-1.1211 0-0.5606-0.0961-0.8328-0.4004-1.1211-0.2082-0.2242-0.4644-0.4004-0.5605-0.4004s-0.3524 0.1762-0.5606 0.4004z" fill="#F038FF"/>
</svg>
